<?xml version="1.0" encoding="UTF-8" standalone="no"?>
<!DOCTYPE svg PUBLIC "-//W3C//DTD SVG 1.1//EN"
 "http://www.w3.org/Graphics/SVG/1.1/DTD/svg11.dtd">
<!-- Generated by graphviz version 2.42.4 (0)
 -->
<!-- Title: G Pages: 1 -->
<svg width="3027pt" height="1567pt"
 viewBox="0.00 0.00 3026.59 1567.30" xmlns="http://www.w3.org/2000/svg" xmlns:xlink="http://www.w3.org/1999/xlink">
<g id="graph0" class="graph" transform="scale(1 1) rotate(0) translate(28.8 1538.5)">
<title>G</title>
<polygon fill="white" stroke="transparent" points="-28.8,28.8 -28.8,-1538.5 2997.79,-1538.5 2997.79,28.8 -28.8,28.8"/>
<text text-anchor="middle" x="1484.49" y="-1484.9" font-family="DejaVu Sans" font-size="26.00">FON KRİZİ – ŞİRKET VE KURUM BAĞLANTI HARİTASI (09.10.2026)</text>
<text text-anchor="middle" x="1484.49" y="-1455.9" font-family="DejaVu Sans" font-size="26.00">Düz çizgi = resmi kayıt (KAP, SPK, Companies House) · Kesikli çizgi = iddia (basın, savcılık dosyası aktarımı)</text>
<text text-anchor="middle" x="1484.49" y="-1426.9" font-family="DejaVu Sans" font-size="26.00">Bir bağlantı suç ya da sorumluluk anlamına gelmez. Soruşturma sürüyor; kesinleşmiş yargı kararı yok.</text>
<g id="clust1" class="cluster">
<title>cluster_tera</title>
<path fill="white" stroke="#c0392b" stroke-dasharray="5,2" d="M29.44,-709.7C29.44,-709.7 2001.99,-709.7 2001.99,-709.7 2007.99,-709.7 2013.99,-715.7 2013.99,-721.7 2013.99,-721.7 2013.99,-987.7 2013.99,-987.7 2013.99,-993.7 2007.99,-999.7 2001.99,-999.7 2001.99,-999.7 29.44,-999.7 29.44,-999.7 23.44,-999.7 17.44,-993.7 17.44,-987.7 17.44,-987.7 17.44,-721.7 17.44,-721.7 17.44,-715.7 23.44,-709.7 29.44,-709.7"/>
<text text-anchor="middle" x="1015.71" y="-976.5" font-family="DejaVu Sans" font-size="24.00" fill="#c0392b">TERA GRUBU</text>
</g>
<g id="clust2" class="cluster">
<title>cluster_pusula</title>
<path fill="white" stroke="#1f618d" stroke-dasharray="5,2" d="M62.17,-401.7C62.17,-401.7 1996.99,-401.7 1996.99,-401.7 2002.99,-401.7 2008.99,-407.7 2008.99,-413.7 2008.99,-413.7 2008.99,-567.7 2008.99,-567.7 2008.99,-573.7 2002.99,-579.7 1996.99,-579.7 1996.99,-579.7 62.17,-579.7 62.17,-579.7 56.17,-579.7 50.17,-573.7 50.17,-567.7 50.17,-567.7 50.17,-413.7 50.17,-413.7 50.17,-407.7 56.17,-401.7 62.17,-401.7"/>
<text text-anchor="middle" x="1029.58" y="-556.5" font-family="DejaVu Sans" font-size="24.00" fill="#1f618d">PUSULA GRUBU</text>
</g>
<g id="clust3" class="cluster">
<title>cluster_hedef</title>
<path fill="white" stroke="#7d3c98" stroke-dasharray="5,2" d="M702.16,-179.7C702.16,-179.7 1472.99,-179.7 1472.99,-179.7 1478.99,-179.7 1484.99,-185.7 1484.99,-191.7 1484.99,-191.7 1484.99,-331.7 1484.99,-331.7 1484.99,-337.7 1478.99,-343.7 1472.99,-343.7 1472.99,-343.7 702.16,-343.7 702.16,-343.7 696.16,-343.7 690.16,-337.7 690.16,-331.7 690.16,-331.7 690.16,-191.7 690.16,-191.7 690.16,-185.7 696.16,-179.7 702.16,-179.7"/>
<text text-anchor="middle" x="1087.57" y="-320.5" font-family="DejaVu Sans" font-size="24.00" fill="#7d3c98">HEDEF GRUBU</text>
</g>
<g id="clust4" class="cluster">
<title>cluster_destek</title>
<path fill="white" stroke="#117a65" stroke-dasharray="5,2" d="M2391.99,-709.7C2391.99,-709.7 2948.99,-709.7 2948.99,-709.7 2954.99,-709.7 2960.99,-715.7 2960.99,-721.7 2960.99,-721.7 2960.99,-793.7 2960.99,-793.7 2960.99,-799.7 2954.99,-805.7 2948.99,-805.7 2948.99,-805.7 2391.99,-805.7 2391.99,-805.7 2385.99,-805.7 2379.99,-799.7 2379.99,-793.7 2379.99,-793.7 2379.99,-721.7 2379.99,-721.7 2379.99,-715.7 2385.99,-709.7 2391.99,-709.7"/>
<text text-anchor="middle" x="2670.49" y="-782.5" font-family="DejaVu Sans" font-size="24.00" fill="#117a65">DESTEK GRUBU</text>
</g>
<g id="clust5" class="cluster">
<title>cluster_ozata</title>
<path fill="white" stroke="#2e4053" stroke-dasharray="5,2" d="M1840.99,-605.7C1840.99,-605.7 2568.99,-605.7 2568.99,-605.7 2574.99,-605.7 2580.99,-611.7 2580.99,-617.7 2580.99,-617.7 2580.99,-689.7 2580.99,-689.7 2580.99,-695.7 2574.99,-701.7 2568.99,-701.7 2568.99,-701.7 1840.99,-701.7 1840.99,-701.7 1834.99,-701.7 1828.99,-695.7 1828.99,-689.7 1828.99,-689.7 1828.99,-617.7 1828.99,-617.7 1828.99,-611.7 1834.99,-605.7 1840.99,-605.7"/>
<text text-anchor="middle" x="2204.99" y="-678.5" font-family="DejaVu Sans" font-size="24.00" fill="#2e4053">ÖZATA</text>
</g>
<g id="clust6" class="cluster">
<title>cluster_diger</title>
<path fill="white" stroke="#5d6d7e" stroke-dasharray="5,2" d="M1821.99,-65.7C1821.99,-65.7 2621.99,-65.7 2621.99,-65.7 2627.99,-65.7 2633.99,-71.7 2633.99,-77.7 2633.99,-77.7 2633.99,-381.7 2633.99,-381.7 2633.99,-387.7 2627.99,-393.7 2621.99,-393.7 2621.99,-393.7 1821.99,-393.7 1821.99,-393.7 1815.99,-393.7 1809.99,-387.7 1809.99,-381.7 1809.99,-381.7 1809.99,-77.7 1809.99,-77.7 1809.99,-71.7 1815.99,-65.7 1821.99,-65.7"/>
<text text-anchor="middle" x="2221.99" y="-370.5" font-family="DejaVu Sans" font-size="24.00" fill="#5d6d7e">DİĞER PORTFÖY ŞİRKETLERİ</text>
</g>
<g id="clust7" class="cluster">
<title>cluster_abroad</title>
<path fill="#f4ecf7" stroke="#6c3483" d="M636.66,-1174.7C636.66,-1174.7 2041.99,-1174.7 2041.99,-1174.7 2047.99,-1174.7 2053.99,-1180.7 2053.99,-1186.7 2053.99,-1186.7 2053.99,-1394.7 2053.99,-1394.7 2053.99,-1400.7 2047.99,-1406.7 2041.99,-1406.7 2041.99,-1406.7 636.66,-1406.7 636.66,-1406.7 630.66,-1406.7 624.66,-1400.7 624.66,-1394.7 624.66,-1394.7 624.66,-1186.7 624.66,-1186.7 624.66,-1180.7 630.66,-1174.7 636.66,-1174.7"/>
<text text-anchor="middle" x="1339.32" y="-1383.5" font-family="DejaVu Sans" font-size="24.00" fill="#6c3483">YURT DIŞI</text>
</g>
<!-- tezmen -->
<g id="node1" class="node">
<title>tezmen</title>
<ellipse fill="#aed6f1" stroke="black" stroke-width="1.1" cx="157.67" cy="-909.7" rx="132.46" ry="32.55"/>
<text text-anchor="middle" x="157.67" y="-915.1" font-family="DejaVu Sans" font-size="17.00">Tezmen ailesi</text>
<text text-anchor="middle" x="157.67" y="-896.1" font-family="DejaVu Sans" font-size="17.00">(TERA ana ortakları)</text>
</g>
<!-- terayat -->
<g id="node2" class="node">
<title>terayat</title>
<polygon fill="#f8c471" stroke="black" stroke-width="1.1" points="856.16,-889.7 676.16,-889.7 676.16,-843.7 856.16,-843.7 856.16,-889.7"/>
<text text-anchor="middle" x="766.16" y="-872.1" font-family="DejaVu Sans" font-size="17.00">Tera Yatırım Menkul</text>
<text text-anchor="middle" x="766.16" y="-853.1" font-family="DejaVu Sans" font-size="17.00">Değerler (TERA)</text>
</g>
<!-- tezmen&#45;&#45;terayat -->
<g id="edge1" class="edge">
<title>tezmen&#45;&#45;terayat</title>
<path fill="none" stroke="#444444" d="M285.07,-900.74C401.89,-892.45 572.53,-880.35 675.78,-873.03"/>
<text text-anchor="middle" x="470.33" y="-899.3" font-family="DejaVu Sans" font-size="13.00" fill="#222222">%31,9 + %25,17 pay (KAP)</text>
</g>
<!-- gilden -->
<g id="node27" class="node">
<title>gilden</title>
<polygon fill="#d2b4de" stroke="black" stroke-width="1.1" points="1490.99,-1234.7 1204.99,-1234.7 1204.99,-1188.7 1490.99,-1188.7 1490.99,-1234.7"/>
<text text-anchor="middle" x="1347.99" y="-1217.1" font-family="DejaVu Sans" font-size="17.00">Gildencrest Capital Ltd (Londra)</text>
<text text-anchor="middle" x="1347.99" y="-1198.1" font-family="DejaVu Sans" font-size="17.00">eski Tera Europe</text>
</g>
<!-- tezmen&#45;&#45;gilden -->
<g id="edge2" class="edge">
<title>tezmen&#45;&#45;gilden</title>
<path fill="none" stroke="#6c3483" stroke-width="2" d="M246.33,-933.83C390.63,-973.35 687.4,-1053.77 939.99,-1116.7 1043.31,-1142.44 1161.92,-1169.88 1244.33,-1188.62"/>
<text text-anchor="middle" x="766.16" y="-1125.3" font-family="DejaVu Sans" font-size="13.00" fill="#222222">önemli kontrol sahibi, %25–50</text>
<text text-anchor="middle" x="766.16" y="-1111.3" font-family="DejaVu Sans" font-size="13.00" fill="#222222">(Companies House)</text>
</g>
<!-- terapys -->
<g id="node3" class="node">
<title>terapys</title>
<polygon fill="#f9e79f" stroke="black" stroke-width="1.1" points="1431.49,-821.7 1264.49,-821.7 1264.49,-785.7 1431.49,-785.7 1431.49,-821.7"/>
<text text-anchor="middle" x="1347.99" y="-799.6" font-family="DejaVu Sans" font-size="17.00">Tera Portföy (PYŞ)</text>
</g>
<!-- terayat&#45;&#45;terapys -->
<g id="edge6" class="edge">
<title>terayat&#45;&#45;terapys</title>
<path fill="none" stroke="#444444" d="M856.41,-856.85C883.27,-853.9 912.83,-850.66 939.99,-847.7 1052.32,-835.45 1182.12,-821.44 1264.35,-812.59"/>
<text text-anchor="middle" x="1055.99" y="-851.3" font-family="DejaVu Sans" font-size="13.00" fill="#222222">grup PYŞ</text>
</g>
<!-- trhol -->
<g id="node5" class="node">
<title>trhol</title>
<polygon fill="#f5b7b1" stroke="black" stroke-width="1.1" points="1452.99,-889.7 1242.99,-889.7 1242.99,-843.7 1452.99,-843.7 1452.99,-889.7"/>
<text text-anchor="middle" x="1347.99" y="-872.1" font-family="DejaVu Sans" font-size="17.00">TRHOL</text>
<text text-anchor="middle" x="1347.99" y="-853.1" font-family="DejaVu Sans" font-size="17.00">Tera Finansal Yat. Hold.</text>
</g>
<!-- terayat&#45;&#45;trhol -->
<g id="edge3" class="edge">
<title>terayat&#45;&#45;trhol</title>
<path fill="none" stroke="#444444" d="M856.17,-866.7C960.37,-866.7 1132.7,-866.7 1242.98,-866.7"/>
<text text-anchor="middle" x="1055.99" y="-870.3" font-family="DejaVu Sans" font-size="13.00" fill="#222222">grup şirketi</text>
</g>
<!-- tehol -->
<g id="node6" class="node">
<title>tehol</title>
<polygon fill="#f5b7b1" stroke="black" stroke-width="1.1" points="1455.49,-957.7 1240.49,-957.7 1240.49,-911.7 1455.49,-911.7 1455.49,-957.7"/>
<text text-anchor="middle" x="1347.99" y="-940.1" font-family="DejaVu Sans" font-size="17.00">TEHOL</text>
<text text-anchor="middle" x="1347.99" y="-921.1" font-family="DejaVu Sans" font-size="17.00">Tera Yat. Teknoloji Hold.</text>
</g>
<!-- terayat&#45;&#45;tehol -->
<g id="edge4" class="edge">
<title>terayat&#45;&#45;tehol</title>
<path fill="none" stroke="#444444" d="M856.17,-877.14C959.58,-889.26 1130.08,-909.26 1240.44,-922.2"/>
<text text-anchor="middle" x="1055.99" y="-916.3" font-family="DejaVu Sans" font-size="13.00" fill="#222222">grup şirketi</text>
</g>
<!-- terabank -->
<g id="node7" class="node">
<title>terabank</title>
<polygon fill="#f8c471" stroke="black" stroke-width="1.1" points="1454.49,-763.7 1241.49,-763.7 1241.49,-717.7 1454.49,-717.7 1454.49,-763.7"/>
<text text-anchor="middle" x="1347.99" y="-746.1" font-family="DejaVu Sans" font-size="17.00">Tera Yatırım Bankası</text>
<text text-anchor="middle" x="1347.99" y="-727.1" font-family="DejaVu Sans" font-size="17.00">+ Tera Finans Faktoring</text>
</g>
<!-- terayat&#45;&#45;terabank -->
<g id="edge5" class="edge">
<title>terayat&#45;&#45;terabank</title>
<path fill="none" stroke="#444444" d="M820.74,-843.64C854.42,-829.95 899.1,-813.27 939.99,-802.7 1040.67,-776.67 1158.38,-760.2 1241.24,-750.83"/>
<text text-anchor="middle" x="1055.99" y="-806.3" font-family="DejaVu Sans" font-size="13.00" fill="#222222">grup</text>
</g>
<!-- pfh -->
<g id="node8" class="node">
<title>pfh</title>
<polygon fill="#f8c471" stroke="black" stroke-width="1.1" points="257.17,-495.7 58.17,-495.7 58.17,-459.7 257.17,-459.7 257.17,-495.7"/>
<text text-anchor="middle" x="157.67" y="-473.6" font-family="DejaVu Sans" font-size="17.00">Pusula Finans Holding</text>
</g>
<!-- terayat&#45;&#45;pfh -->
<g id="edge9" class="edge">
<title>terayat&#45;&#45;pfh</title>
<path fill="none" stroke="#c0392b" stroke-width="2" d="M757.87,-843.39C739.55,-788.85 686.22,-652.32 592.33,-583.7 539.61,-545.17 368.42,-511.44 257.54,-492.88"/>
<text text-anchor="middle" x="470.33" y="-601.3" font-family="DejaVu Sans" font-size="13.00" fill="#222222">devralma mutabakatı 10.09</text>
<text text-anchor="middle" x="470.33" y="-587.3" font-family="DejaVu Sans" font-size="13.00" fill="#222222">(15.09: devir tamamlanmadı)</text>
</g>
<!-- ktlev -->
<g id="node12" class="node">
<title>ktlev</title>
<polygon fill="#f5b7b1" stroke="black" stroke-width="1.1" points="1984.99,-533.7 1868.99,-533.7 1868.99,-487.7 1984.99,-487.7 1984.99,-533.7"/>
<text text-anchor="middle" x="1926.99" y="-516.1" font-family="DejaVu Sans" font-size="17.00">KTLEV</text>
<text text-anchor="middle" x="1926.99" y="-497.1" font-family="DejaVu Sans" font-size="17.00">Katılımevim</text>
</g>
<!-- terayat&#45;&#45;ktlev -->
<g id="edge8" class="edge">
<title>terayat&#45;&#45;ktlev</title>
<path fill="none" stroke="#c0392b" stroke-width="3" d="M800.26,-843.51C834.56,-819.85 890.04,-782.62 939.99,-753.7 1040.1,-695.74 1094.72,-721.79 1171.99,-635.7 1199.61,-604.92 1171.58,-573.08 1204.99,-548.7 1231.66,-529.23 1703.06,-516.06 1868.87,-512.01"/>
<text text-anchor="middle" x="1347.99" y="-566.3" font-family="DejaVu Sans" font-size="13.00" fill="#222222">%47,97 doğrudan pay</text>
<text text-anchor="middle" x="1347.99" y="-552.3" font-family="DejaVu Sans" font-size="13.00" fill="#222222">(KAP ortaklık tablosu)</text>
</g>
<!-- dstkf -->
<g id="node17" class="node">
<title>dstkf</title>
<polygon fill="#f5b7b1" stroke="black" stroke-width="1.1" points="2605.99,-763.7 2387.99,-763.7 2387.99,-717.7 2605.99,-717.7 2605.99,-763.7"/>
<text text-anchor="middle" x="2496.99" y="-746.1" font-family="DejaVu Sans" font-size="17.00">DSTKF</text>
<text text-anchor="middle" x="2496.99" y="-727.1" font-family="DejaVu Sans" font-size="17.00">Destek Finans Faktoring</text>
</g>
<!-- terayat&#45;&#45;dstkf -->
<g id="edge12" class="edge">
<title>terayat&#45;&#45;dstkf</title>
<path fill="none" stroke="#444444" d="M788.87,-889.71C817.56,-920.7 868.93,-978.13 906.99,-1031.7 923.72,-1055.25 914.9,-1073.36 939.99,-1087.7 973.22,-1106.69 2190.48,-1159.35 2334.99,-1067.7 2445.87,-997.37 2482.77,-826.21 2492.78,-763.89"/>
<text text-anchor="middle" x="1649.49" y="-1123.3" font-family="DejaVu Sans" font-size="13.00" fill="#222222">halka arz aracısı; %10,5 pay</text>
</g>
<!-- ozatd -->
<g id="node19" class="node">
<title>ozatd</title>
<polygon fill="#f5b7b1" stroke="black" stroke-width="1.1" points="2572.99,-659.7 2420.99,-659.7 2420.99,-613.7 2572.99,-613.7 2572.99,-659.7"/>
<text text-anchor="middle" x="2496.99" y="-642.1" font-family="DejaVu Sans" font-size="17.00">OZATD</text>
<text text-anchor="middle" x="2496.99" y="-623.1" font-family="DejaVu Sans" font-size="17.00">Özata Denizcilik</text>
</g>
<!-- terayat&#45;&#45;ozatd -->
<g id="edge15" class="edge">
<title>terayat&#45;&#45;ozatd</title>
<path fill="none" stroke="#444444" d="M786.32,-890.03C826.94,-939.19 919.65,-1049.64 939.99,-1058.7 1049.59,-1107.5 1463.19,-1100.62 1774.99,-1024.7 2039.99,-960.17 2139.76,-964.16 2334.99,-773.7 2359.32,-749.96 2344.46,-729.24 2367.99,-704.7 2386.36,-685.53 2411.33,-670.62 2434.33,-659.7"/>
<text text-anchor="middle" x="1649.49" y="-1072.3" font-family="DejaVu Sans" font-size="13.00" fill="#222222">blok alım 13 mn pay @212 TL (30.04)</text>
</g>
<!-- tfon -->
<g id="node4" class="node">
<title>tfon</title>
<polygon fill="#abebc6" stroke="black" stroke-width="1.1" points="2005.99,-763.7 2002.99,-767.7 1981.99,-767.7 1978.99,-763.7 1847.99,-763.7 1847.99,-717.7 2005.99,-717.7 2005.99,-763.7"/>
<text text-anchor="middle" x="1926.99" y="-746.1" font-family="DejaVu Sans" font-size="17.00">Tera fonları</text>
<text text-anchor="middle" x="1926.99" y="-727.1" font-family="DejaVu Sans" font-size="17.00">(TLY ve diğerleri)</text>
</g>
<!-- terapys&#45;&#45;tfon -->
<g id="edge7" class="edge">
<title>terapys&#45;&#45;tfon</title>
<path fill="none" stroke="#444444" d="M1431.66,-794.67C1542.75,-782.54 1738.79,-761.14 1847.63,-749.25"/>
<text text-anchor="middle" x="1649.49" y="-786.3" font-family="DejaVu Sans" font-size="13.00" fill="#222222">kurucu</text>
</g>
<!-- hedef -->
<g id="node14" class="node">
<title>hedef</title>
<polygon fill="#f5b7b1" stroke="black" stroke-width="1.1" points="834.16,-301.7 698.16,-301.7 698.16,-255.7 834.16,-255.7 834.16,-301.7"/>
<text text-anchor="middle" x="766.16" y="-284.1" font-family="DejaVu Sans" font-size="17.00">HEDEF</text>
<text text-anchor="middle" x="766.16" y="-265.1" font-family="DejaVu Sans" font-size="17.00">Hedef Holding</text>
</g>
<!-- tfon&#45;&#45;hedef -->
<g id="edge45" class="edge">
<title>tfon&#45;&#45;hedef</title>
<path fill="none" stroke="#444444" stroke-dasharray="5,2" d="M1847.69,-725.62C1833.77,-720.9 1819.92,-714.74 1807.99,-706.7 1788.3,-693.44 1796.06,-675.63 1774.99,-664.7 1662.4,-606.27 1298.44,-720.46 1204.99,-634.7 1126.63,-562.79 1241.44,-478.24 1171.99,-397.7 1127.91,-346.59 937.58,-307.41 834.35,-289.46"/>
<text text-anchor="middle" x="1347.99" y="-685.3" font-family="DejaVu Sans" font-size="13.00" fill="#222222">&#39;yüklü alım&#39; sorusu</text>
<text text-anchor="middle" x="1347.99" y="-671.3" font-family="DejaVu Sans" font-size="13.00" fill="#222222">(savcılık sorgusu, T24)</text>
</g>
<!-- tfon&#45;&#45;dstkf -->
<g id="edge11" class="edge">
<title>tfon&#45;&#45;dstkf</title>
<path fill="none" stroke="#c0392b" stroke-width="3" d="M2006.07,-740.7C2105.05,-740.7 2276.19,-740.7 2387.73,-740.7"/>
<text text-anchor="middle" x="2206.99" y="-758.3" font-family="DejaVu Sans" font-size="13.00" fill="#222222">%10,20 sermaye /</text>
<text text-anchor="middle" x="2206.99" y="-744.3" font-family="DejaVu Sans" font-size="13.00" fill="#222222">%39,41 fiili dolaşım (01.09)</text>
</g>
<!-- tfon&#45;&#45;ozatd -->
<g id="edge10" class="edge">
<title>tfon&#45;&#45;ozatd</title>
<path fill="none" stroke="#c0392b" stroke-width="3" d="M2006.21,-722.88C2029.58,-717.75 2055.28,-712.3 2078.99,-707.7 2198.11,-684.55 2337.2,-661.7 2420.84,-648.41"/>
<text text-anchor="middle" x="2206.99" y="-725.3" font-family="DejaVu Sans" font-size="13.00" fill="#222222">%85,90 fiili dolaşım</text>
<text text-anchor="middle" x="2206.99" y="-711.3" font-family="DejaVu Sans" font-size="13.00" fill="#222222">(5 fon, 31.08)</text>
</g>
<!-- ppys -->
<g id="node9" class="node">
<title>ppys</title>
<polygon fill="#f9e79f" stroke="black" stroke-width="1.1" points="859.16,-445.7 673.16,-445.7 673.16,-409.7 859.16,-409.7 859.16,-445.7"/>
<text text-anchor="middle" x="766.16" y="-423.6" font-family="DejaVu Sans" font-size="17.00">Pusula Portföy (PYŞ)</text>
</g>
<!-- pfh&#45;&#45;ppys -->
<g id="edge19" class="edge">
<title>pfh&#45;&#45;ppys</title>
<path fill="none" stroke="#444444" d="M257.46,-469.55C372.42,-460.07 560.77,-444.55 672.87,-435.31"/>
</g>
<!-- pyat -->
<g id="node10" class="node">
<title>pyat</title>
<polygon fill="#f8c471" stroke="black" stroke-width="1.1" points="843.66,-537.7 688.66,-537.7 688.66,-491.7 843.66,-491.7 843.66,-537.7"/>
<text text-anchor="middle" x="766.16" y="-520.1" font-family="DejaVu Sans" font-size="17.00">Pusula Yatırım</text>
<text text-anchor="middle" x="766.16" y="-501.1" font-family="DejaVu Sans" font-size="17.00">Menkul Değerler</text>
</g>
<!-- pfh&#45;&#45;pyat -->
<g id="edge20" class="edge">
<title>pfh&#45;&#45;pyat</title>
<path fill="none" stroke="#444444" d="M257.41,-478.98C345.39,-480.68 477.61,-484.63 592.33,-493.7 623.82,-496.19 658.4,-500.14 688.3,-503.95"/>
</g>
<!-- pfh&#45;&#45;ktlev -->
<g id="edge21" class="edge">
<title>pfh&#45;&#45;ktlev</title>
<path fill="none" stroke="#444444" d="M257.59,-476.46C286.81,-476.14 318.86,-475.85 348.33,-475.7 456.77,-475.13 483.89,-474.84 592.33,-475.7 732.19,-476.81 767.17,-477.21 906.99,-480.7 1181.28,-487.54 1249.71,-493.96 1523.99,-501.7 1646.8,-505.16 1790.75,-508.12 1868.73,-509.62"/>
<text text-anchor="middle" x="1055.99" y="-492.3" font-family="DejaVu Sans" font-size="13.00" fill="#222222">grup şirketi</text>
</g>
<!-- pfon -->
<g id="node11" class="node">
<title>pfon</title>
<polygon fill="#abebc6" stroke="black" stroke-width="1.1" points="1412.99,-449.7 1409.99,-453.7 1388.99,-453.7 1385.99,-449.7 1282.99,-449.7 1282.99,-413.7 1412.99,-413.7 1412.99,-449.7"/>
<text text-anchor="middle" x="1347.99" y="-427.6" font-family="DejaVu Sans" font-size="17.00">Pusula fonları</text>
</g>
<!-- ppys&#45;&#45;pfon -->
<g id="edge22" class="edge">
<title>ppys&#45;&#45;pfon</title>
<path fill="none" stroke="#444444" d="M859.35,-428.33C977.74,-429.15 1180.14,-430.55 1282.96,-431.26"/>
<text text-anchor="middle" x="1055.99" y="-433.3" font-family="DejaVu Sans" font-size="13.00" fill="#222222">kurucu</text>
</g>
<!-- edr -->
<g id="node30" class="node">
<title>edr</title>
<polygon fill="#d2b4de" stroke="black" stroke-width="1.1" points="868.66,-1228.7 663.66,-1228.7 663.66,-1182.7 868.66,-1182.7 868.66,-1228.7"/>
<text text-anchor="middle" x="766.16" y="-1211.1" font-family="DejaVu Sans" font-size="17.00">Edmond de Rothschild</text>
<text text-anchor="middle" x="766.16" y="-1192.1" font-family="DejaVu Sans" font-size="17.00">(Lüksemburg / İsviçre)</text>
</g>
<!-- pyat&#45;&#45;edr -->
<g id="edge42" class="edge">
<title>pyat&#45;&#45;edr</title>
<path fill="none" stroke="#1f618d" stroke-width="2" stroke-dasharray="5,2" d="M688.56,-511.09C601.82,-511.8 464.72,-528.14 397.33,-616.7 317.37,-721.78 525.16,-1078.88 624.66,-1165.7 635.91,-1175.52 649.41,-1182.94 663.54,-1188.54"/>
<text text-anchor="middle" x="470.33" y="-634.3" font-family="DejaVu Sans" font-size="13.00" fill="#222222">THYAO virmanları 11.08 ve 14.08</text>
<text text-anchor="middle" x="470.33" y="-620.3" font-family="DejaVu Sans" font-size="13.00" fill="#222222">~2,93 mlr TL (Sabah, dosya belgesi)</text>
</g>
<!-- burgan -->
<g id="node35" class="node">
<title>burgan</title>
<polygon fill="#f8c471" stroke="black" stroke-width="1.1" points="1438.99,-1166.7 1256.99,-1166.7 1256.99,-1130.7 1438.99,-1130.7 1438.99,-1166.7"/>
<text text-anchor="middle" x="1347.99" y="-1144.6" font-family="DejaVu Sans" font-size="17.00">Burgan Yatırım (TR)</text>
</g>
<!-- pyat&#45;&#45;burgan -->
<g id="edge43" class="edge">
<title>pyat&#45;&#45;burgan</title>
<path fill="none" stroke="#444444" stroke-dasharray="5,2" d="M790.81,-537.95C823.23,-571.46 880.48,-636.79 906.99,-704.7 931.3,-766.97 898.51,-951.27 939.99,-1003.7 942.87,-1007.35 1185.98,-1092.51 1295.05,-1130.59"/>
<text text-anchor="middle" x="1055.99" y="-1103.3" font-family="DejaVu Sans" font-size="13.00" fill="#222222">2 mn KUYAS virmanı 24.07</text>
<text text-anchor="middle" x="1055.99" y="-1089.3" font-family="DejaVu Sans" font-size="13.00" fill="#222222">(Sabah)</text>
</g>
<!-- pfon&#45;&#45;ktlev -->
<g id="edge23" class="edge">
<title>pfon&#45;&#45;ktlev</title>
<path fill="none" stroke="#1f618d" stroke-width="3" d="M1413.27,-437.35C1523.54,-447.12 1740.3,-466.7 1774.99,-472.7 1806.28,-478.11 1840.66,-486.56 1868.7,-494.12"/>
<text text-anchor="middle" x="1649.49" y="-490.3" font-family="DejaVu Sans" font-size="13.00" fill="#222222">%25,59 (Ara. 2025);</text>
<text text-anchor="middle" x="1649.49" y="-476.3" font-family="DejaVu Sans" font-size="13.00" fill="#222222">bir fon %11,01 (güncel)</text>
</g>
<!-- gundg -->
<g id="node13" class="node">
<title>gundg</title>
<polygon fill="#f5b7b1" stroke="black" stroke-width="1.1" points="2000.99,-455.7 1852.99,-455.7 1852.99,-409.7 2000.99,-409.7 2000.99,-455.7"/>
<text text-anchor="middle" x="1926.99" y="-438.1" font-family="DejaVu Sans" font-size="17.00">GUNDG</text>
<text text-anchor="middle" x="1926.99" y="-419.1" font-family="DejaVu Sans" font-size="17.00">Gündoğdu Gıda</text>
</g>
<!-- pfon&#45;&#45;gundg -->
<g id="edge24" class="edge">
<title>pfon&#45;&#45;gundg</title>
<path fill="none" stroke="#1f618d" stroke-width="3" d="M1413.22,-431.56C1496.61,-431.42 1646.67,-431.27 1774.99,-431.7 1800.28,-431.78 1827.97,-431.94 1852.64,-432.11"/>
<text text-anchor="middle" x="1649.49" y="-435.3" font-family="DejaVu Sans" font-size="13.00" fill="#222222">%38,67 (KAP, 18.08)</text>
</g>
<!-- hpys -->
<g id="node15" class="node">
<title>hpys</title>
<polygon fill="#f9e79f" stroke="black" stroke-width="1.1" points="1438.99,-301.7 1256.99,-301.7 1256.99,-255.7 1438.99,-255.7 1438.99,-301.7"/>
<text text-anchor="middle" x="1347.99" y="-284.1" font-family="DejaVu Sans" font-size="17.00">Hedef Portföy (PYŞ)</text>
<text text-anchor="middle" x="1347.99" y="-265.1" font-family="DejaVu Sans" font-size="17.00">+ fonları</text>
</g>
<!-- hedef&#45;&#45;hpys -->
<g id="edge25" class="edge">
<title>hedef&#45;&#45;hpys</title>
<path fill="none" stroke="#444444" d="M834.24,-278.7C938.57,-278.7 1139.87,-278.7 1256.81,-278.7"/>
<text text-anchor="middle" x="1055.99" y="-282.3" font-family="DejaVu Sans" font-size="13.00" fill="#222222">%85</text>
</g>
<!-- hbank -->
<g id="node16" class="node">
<title>hbank</title>
<polygon fill="#f8c471" stroke="black" stroke-width="1.1" points="1476.99,-233.7 1218.99,-233.7 1218.99,-187.7 1476.99,-187.7 1476.99,-233.7"/>
<text text-anchor="middle" x="1347.99" y="-216.1" font-family="DejaVu Sans" font-size="17.00">Hedef Yatırım Bankası (%41)</text>
<text text-anchor="middle" x="1347.99" y="-197.1" font-family="DejaVu Sans" font-size="17.00">+ İnfo Yatırım (%30,37)</text>
</g>
<!-- hedef&#45;&#45;hbank -->
<g id="edge26" class="edge">
<title>hedef&#45;&#45;hbank</title>
<path fill="none" stroke="#444444" d="M834.24,-270.83C927.99,-259.84 1100.03,-239.66 1218.81,-225.73"/>
</g>
<!-- hpys&#45;&#45;tehol -->
<g id="edge27" class="edge">
<title>hpys&#45;&#45;tehol</title>
<path fill="none" stroke="#7d3c98" stroke-width="3" d="M1307.92,-301.75C1230.58,-348.98 1063.18,-465.15 1004.49,-616.7 948.68,-760.78 1075.98,-815.67 1204.99,-900.7 1215.75,-907.79 1227.83,-913.41 1240.29,-917.85"/>
<text text-anchor="middle" x="1055.99" y="-620.3" font-family="DejaVu Sans" font-size="13.00" fill="#222222">fonlar %4,40 → %5,05 (06.08)</text>
</g>
<!-- dbank -->
<g id="node18" class="node">
<title>dbank</title>
<polygon fill="#f8c471" stroke="black" stroke-width="1.1" points="2952.99,-755.7 2741.99,-755.7 2741.99,-719.7 2952.99,-719.7 2952.99,-755.7"/>
<text text-anchor="middle" x="2847.49" y="-733.6" font-family="DejaVu Sans" font-size="17.00">Destek Yatırım Bankası</text>
</g>
<!-- dstkf&#45;&#45;dbank -->
<g id="edge28" class="edge">
<title>dstkf&#45;&#45;dbank</title>
<path fill="none" stroke="#444444" d="M2606.34,-739.76C2649.5,-739.39 2698.99,-738.97 2741.78,-738.6"/>
<text text-anchor="middle" x="2683.99" y="-742.3" font-family="DejaVu Sans" font-size="13.00" fill="#222222">%99,99</text>
</g>
<!-- ataseven -->
<g id="node20" class="node">
<title>ataseven</title>
<polygon fill="#f8c471" stroke="black" stroke-width="1.1" points="2016.99,-659.7 1836.99,-659.7 1836.99,-613.7 2016.99,-613.7 2016.99,-659.7"/>
<text text-anchor="middle" x="1926.99" y="-642.1" font-family="DejaVu Sans" font-size="17.00">Ataseven Denizcilik</text>
<text text-anchor="middle" x="1926.99" y="-623.1" font-family="DejaVu Sans" font-size="17.00">(hakim ortak)</text>
</g>
<!-- ataseven&#45;&#45;tfon -->
<g id="edge14" class="edge">
<title>ataseven&#45;&#45;tfon</title>
<path fill="none" stroke="#444444" d="M1926.99,-659.78C1926.99,-677.01 1926.99,-700.46 1926.99,-717.68"/>
<text text-anchor="middle" x="1916.99" y="-685.3" font-family="DejaVu Sans" font-size="13.00" fill="#222222">4,3 mn pay sattı (27.04)</text>
</g>
<!-- ataseven&#45;&#45;ozatd -->
<g id="edge13" class="edge">
<title>ataseven&#45;&#45;ozatd</title>
<path fill="none" stroke="#444444" d="M2017.05,-636.7C2128.2,-636.7 2316.33,-636.7 2420.65,-636.7"/>
<text text-anchor="middle" x="2206.99" y="-640.3" font-family="DejaVu Sans" font-size="13.00" fill="#222222">hakim ortak</text>
</g>
<!-- pardus -->
<g id="node21" class="node">
<title>pardus</title>
<polygon fill="#f9e79f" stroke="black" stroke-width="1.1" points="2020.99,-167.7 1832.99,-167.7 1832.99,-131.7 2020.99,-131.7 2020.99,-167.7"/>
<text text-anchor="middle" x="1926.99" y="-145.6" font-family="DejaVu Sans" font-size="17.00">Pardus Portföy (PYŞ)</text>
</g>
<!-- pardus&#45;&#45;ozatd -->
<g id="edge18" class="edge">
<title>pardus&#45;&#45;ozatd</title>
<path fill="none" stroke="#444444" d="M2021.15,-164.65C2032.59,-168.34 2043.83,-172.95 2053.99,-178.7 2260.31,-295.38 2431.19,-538.07 2481.17,-613.69"/>
<text text-anchor="middle" x="2206.99" y="-415.3" font-family="DejaVu Sans" font-size="13.00" fill="#222222">fonlar %5,265 (17.08)</text>
</g>
<!-- a1 -->
<g id="node22" class="node">
<title>a1</title>
<polygon fill="#f9e79f" stroke="black" stroke-width="1.1" points="2035.99,-283.7 1817.99,-283.7 1817.99,-247.7 2035.99,-247.7 2035.99,-283.7"/>
<text text-anchor="middle" x="1926.99" y="-261.6" font-family="DejaVu Sans" font-size="17.00">A1 Capital Portföy (PYŞ)</text>
</g>
<!-- atlas -->
<g id="node23" class="node">
<title>atlas</title>
<polygon fill="#f9e79f" stroke="black" stroke-width="1.1" points="2013.49,-225.7 1840.49,-225.7 1840.49,-189.7 2013.49,-189.7 2013.49,-225.7"/>
<text text-anchor="middle" x="1926.99" y="-203.6" font-family="DejaVu Sans" font-size="17.00">Atlas Portföy (PYŞ)</text>
</g>
<!-- bulls -->
<g id="node24" class="node">
<title>bulls</title>
<polygon fill="#f9e79f" stroke="black" stroke-width="1.1" points="2625.99,-293.7 2367.99,-293.7 2367.99,-247.7 2625.99,-247.7 2625.99,-293.7"/>
<text text-anchor="middle" x="2496.99" y="-276.1" font-family="DejaVu Sans" font-size="17.00">Bulls Yatırım Holding</text>
<text text-anchor="middle" x="2496.99" y="-257.1" font-family="DejaVu Sans" font-size="17.00">(Bulls Menkul / Bulls Portföy)</text>
</g>
<!-- bulls&#45;&#45;ozatd -->
<g id="edge17" class="edge">
<title>bulls&#45;&#45;ozatd</title>
<path fill="none" stroke="#444444" d="M2496.99,-293.87C2496.99,-359.71 2496.99,-547.38 2496.99,-613.39"/>
<text text-anchor="middle" x="2486.99" y="-450.3" font-family="DejaVu Sans" font-size="13.00" fill="#222222">blokta satıcı aracı kurum</text>
</g>
<!-- lydia -->
<g id="node25" class="node">
<title>lydia</title>
<polygon fill="#f8c471" stroke="black" stroke-width="1.1" points="2022.99,-109.7 1830.99,-109.7 1830.99,-73.7 2022.99,-73.7 2022.99,-109.7"/>
<text text-anchor="middle" x="1926.99" y="-87.6" font-family="DejaVu Sans" font-size="17.00">Lydia Yatırım Holding</text>
</g>
<!-- lydia&#45;&#45;bulls -->
<g id="edge29" class="edge">
<title>lydia&#45;&#45;bulls</title>
<path fill="none" stroke="#444444" d="M2023.01,-98.65C2107.39,-107.27 2232.81,-126.14 2334.99,-166.7 2385.55,-186.77 2437.2,-223.62 2467.92,-247.64"/>
<text text-anchor="middle" x="2206.99" y="-170.3" font-family="DejaVu Sans" font-size="13.00" fill="#222222">%33,3 ortak</text>
</g>
<!-- binbn -->
<g id="node26" class="node">
<title>binbn</title>
<polygon fill="#f5b7b1" stroke="black" stroke-width="1.1" points="2002.99,-351.7 1850.99,-351.7 1850.99,-305.7 2002.99,-305.7 2002.99,-351.7"/>
<text text-anchor="middle" x="1926.99" y="-334.1" font-family="DejaVu Sans" font-size="17.00">BINBN + LYDYE</text>
<text text-anchor="middle" x="1926.99" y="-315.1" font-family="DejaVu Sans" font-size="17.00">(borsa hisseleri)</text>
</g>
<!-- gilden&#45;&#45;binbn -->
<g id="edge40" class="edge">
<title>gilden&#45;&#45;binbn</title>
<path fill="none" stroke="#444444" stroke-dasharray="5,2" d="M1479.59,-1188.62C1483.72,-1185.39 1487.55,-1181.76 1490.99,-1177.7 1561.01,-1094.85 1457.37,-776.3 1523.99,-690.7 1596.06,-598.08 1698.96,-698.1 1774.99,-608.7 1836.76,-536.06 1754.05,-475.33 1807.99,-396.7 1821.43,-377.1 1842.5,-362.41 1863.14,-351.8"/>
<text text-anchor="middle" x="1649.49" y="-694.3" font-family="DejaVu Sans" font-size="13.00" fill="#222222">pay sahibi (soL)</text>
</g>
<!-- century -->
<g id="node29" class="node">
<title>century</title>
<polygon fill="#d2b4de" stroke="black" stroke-width="1.1" points="2045.99,-1228.7 1807.99,-1228.7 1807.99,-1182.7 2045.99,-1182.7 2045.99,-1228.7"/>
<text text-anchor="middle" x="1926.99" y="-1211.1" font-family="DejaVu Sans" font-size="17.00">Century City Securities SA</text>
<text text-anchor="middle" x="1926.99" y="-1192.1" font-family="DejaVu Sans" font-size="17.00">(İsviçre)</text>
</g>
<!-- gilden&#45;&#45;century -->
<g id="edge39" class="edge">
<title>gilden&#45;&#45;century</title>
<path fill="none" stroke="#6c3483" stroke-width="2" stroke-dasharray="5,2" d="M1491.25,-1210.22C1588.52,-1209.21 1715.95,-1207.88 1807.67,-1206.93"/>
<text text-anchor="middle" x="1649.49" y="-1241.3" font-family="DejaVu Sans" font-size="13.00" fill="#222222">11.09 BINBN/LYDYE&#39;de eşzamanlı</text>
<text text-anchor="middle" x="1649.49" y="-1227.3" font-family="DejaVu Sans" font-size="13.00" fill="#222222">bakiye değişimi (MKK verisi, soL/DW)</text>
<text text-anchor="middle" x="1649.49" y="-1213.3" font-family="DejaVu Sans" font-size="13.00" fill="#222222">koordinasyon kanıtlanmadı</text>
</g>
<!-- cynelic -->
<g id="node28" class="node">
<title>cynelic</title>
<polygon fill="#d2b4de" stroke="black" stroke-width="1.1" points="899.66,-1364.7 632.66,-1364.7 632.66,-1318.7 899.66,-1318.7 899.66,-1364.7"/>
<text text-anchor="middle" x="766.16" y="-1347.1" font-family="DejaVu Sans" font-size="17.00">Cynelic Investments Ltd (BVI)</text>
<text text-anchor="middle" x="766.16" y="-1328.1" font-family="DejaVu Sans" font-size="17.00">eski Tera Financial Holdings</text>
</g>
<!-- cynelic&#45;&#45;gilden -->
<g id="edge38" class="edge">
<title>cynelic&#45;&#45;gilden</title>
<path fill="none" stroke="#6c3483" stroke-dasharray="5,2" d="M869.82,-1318.68C975.37,-1295.02 1138.8,-1258.37 1244.34,-1234.71"/>
<text text-anchor="middle" x="1055.99" y="-1316.3" font-family="DejaVu Sans" font-size="13.00" fill="#222222">ana şirket</text>
<text text-anchor="middle" x="1055.99" y="-1302.3" font-family="DejaVu Sans" font-size="13.00" fill="#222222">(soL, 2025 hesaplarına dayanarak)</text>
</g>
<!-- century&#45;&#45;ozatd -->
<g id="edge16" class="edge">
<title>century&#45;&#45;ozatd</title>
<path fill="none" stroke="#6c3483" stroke-width="2" d="M2046.27,-1199.23C2140.02,-1187.34 2266.3,-1154.88 2334.99,-1067.7 2385.11,-1004.07 2323.15,-772.16 2367.99,-704.7 2381.29,-684.68 2402.48,-670.14 2423.82,-659.77"/>
<text text-anchor="middle" x="2206.99" y="-1196.3" font-family="DejaVu Sans" font-size="13.00" fill="#222222">blok alım 2,6 mn pay @212 TL (30.04)</text>
</g>
<!-- century&#45;&#45;binbn -->
<g id="edge41" class="edge">
<title>century&#45;&#45;binbn</title>
<path fill="none" stroke="#444444" stroke-dasharray="5,2" d="M1849.03,-1182.64C1776.82,-1156.67 1673.69,-1106.7 1626.49,-1022.7 1555.54,-896.42 1718.04,-510.23 1807.99,-396.7 1823.28,-377.39 1845.66,-362.58 1866.89,-351.79"/>
<text text-anchor="middle" x="1649.49" y="-1012.3" font-family="DejaVu Sans" font-size="13.00" fill="#222222">%5,82 / %6,32 (soL)</text>
</g>
<!-- leopard -->
<g id="node31" class="node">
<title>leopard</title>
<polygon fill="#d2b4de" stroke="black" stroke-width="1.1" points="865.66,-1296.7 666.66,-1296.7 666.66,-1250.7 865.66,-1250.7 865.66,-1296.7"/>
<text text-anchor="middle" x="766.16" y="-1279.1" font-family="DejaVu Sans" font-size="17.00">Leopard Family Office</text>
<text text-anchor="middle" x="766.16" y="-1260.1" font-family="DejaVu Sans" font-size="17.00">(Bahreyn)</text>
</g>
<!-- leopard&#45;&#45;burgan -->
<g id="edge44" class="edge">
<title>leopard&#45;&#45;burgan</title>
<path fill="none" stroke="#444444" stroke-dasharray="5,2" d="M863.39,-1250.64C981.91,-1222.31 1171.69,-1177.18 1204.99,-1170.7 1221.64,-1167.45 1239.46,-1164.38 1256.66,-1161.62"/>
<text text-anchor="middle" x="1055.99" y="-1234.3" font-family="DejaVu Sans" font-size="13.00" fill="#222222">virman talimatı (Sabah)</text>
</g>
<!-- spk -->
<g id="node32" class="node">
<title>spk</title>
<polygon fill="#d5d8dc" stroke="black" stroke-width="1.1" points="315.5,-324.03 315.5,-353.37 223.04,-374.11 92.29,-374.11 -0.17,-353.37 -0.17,-324.03 92.29,-303.28 223.04,-303.28 315.5,-324.03"/>
<text text-anchor="middle" x="157.67" y="-344.1" font-family="DejaVu Sans" font-size="17.00">SPK suç duyurusu</text>
<text text-anchor="middle" x="157.67" y="-325.1" font-family="DejaVu Sans" font-size="17.00">TRHOL, 28.09 (37 kişi)</text>
</g>
<!-- spk&#45;&#45;terapys -->
<g id="edge30" class="edge">
<title>spk&#45;&#45;terapys</title>
<path fill="none" stroke="#444444" d="M315.7,-342.88C528.8,-349.28 885.67,-362.89 906.99,-382.7 988.75,-458.7 876.11,-540.15 939.99,-631.7 1006.65,-727.24 1071.2,-695.26 1171.99,-753.7 1187.03,-762.42 1188.87,-768.18 1204.99,-774.7 1223.65,-782.24 1244.51,-787.9 1264.38,-792.12"/>
<text text-anchor="middle" x="766.16" y="-386.3" font-family="DejaVu Sans" font-size="13.00" fill="#222222">Tera yöneticileri</text>
</g>
<!-- spk&#45;&#45;ppys -->
<g id="edge31" class="edge">
<title>spk&#45;&#45;ppys</title>
<path fill="none" stroke="#444444" d="M251.96,-367.85C282.42,-376.4 316.58,-384.98 348.33,-390.7 458.98,-410.61 588.17,-419.97 673.05,-424.26"/>
<text text-anchor="middle" x="470.33" y="-422.3" font-family="DejaVu Sans" font-size="13.00" fill="#222222">Pusula yöneticileri</text>
</g>
<!-- spk&#45;&#45;hedef -->
<g id="edge32" class="edge">
<title>spk&#45;&#45;hedef</title>
<path fill="none" stroke="#444444" d="M312.89,-323.44C437.12,-311.15 605.77,-294.47 698.02,-285.34"/>
<text text-anchor="middle" x="470.33" y="-322.3" font-family="DejaVu Sans" font-size="13.00" fill="#222222">Hedef ortağı</text>
</g>
<!-- spk&#45;&#45;pardus -->
<g id="edge33" class="edge">
<title>spk&#45;&#45;pardus</title>
<path fill="none" stroke="#444444" d="M214.36,-303.48C299.76,-250.8 469.47,-151.2 624.66,-90.7 759.57,-38.1 796.35,-27.07 939.99,-8.7 1042.26,4.38 1069.32,0.82 1171.99,-8.7 1301.44,-20.7 1672.03,-96.41 1840.63,-131.67"/>
<text text-anchor="middle" x="1055.99" y="-12.3" font-family="DejaVu Sans" font-size="13.00" fill="#222222">Pardus yöneticileri</text>
</g>
<!-- tmsf -->
<g id="node33" class="node">
<title>tmsf</title>
<polygon fill="#d5d8dc" stroke="black" stroke-width="1.1" points="906.81,-122.03 906.81,-151.37 824.42,-172.11 707.9,-172.11 625.5,-151.37 625.5,-122.03 707.9,-101.28 824.42,-101.28 906.81,-122.03"/>
<text text-anchor="middle" x="766.16" y="-142.1" font-family="DejaVu Sans" font-size="17.00">TMSF</text>
<text text-anchor="middle" x="766.16" y="-123.1" font-family="DejaVu Sans" font-size="17.00">(BDDK devri, 30.09)</text>
</g>
<!-- tmsf&#45;&#45;terabank -->
<g id="edge34" class="edge">
<title>tmsf&#45;&#45;terabank</title>
<path fill="none" stroke="#444444" d="M885.08,-157.11C893.33,-162.1 900.81,-168.21 906.99,-175.7 964.87,-245.87 877.5,-517.59 939.99,-583.7 1011.48,-659.34 1090.32,-551.16 1171.99,-615.7 1203.78,-640.82 1174.99,-673.45 1204.99,-700.7 1215.51,-710.26 1228.14,-717.55 1241.48,-723.11"/>
</g>
<!-- tmsf&#45;&#45;hbank -->
<g id="edge35" class="edge">
<title>tmsf&#45;&#45;hbank</title>
<path fill="none" stroke="#444444" d="M898.73,-153.49C994.63,-165.73 1123.86,-182.22 1218.93,-194.35"/>
</g>
<!-- tmsf&#45;&#45;dbank -->
<g id="edge36" class="edge">
<title>tmsf&#45;&#45;dbank</title>
<path fill="none" stroke="#444444" d="M862.52,-110.77C976.76,-82.03 1174.37,-39.7 1346.99,-39.7 1346.99,-39.7 1346.99,-39.7 2497.99,-39.7 2559.15,-39.7 2587.6,-20.83 2633.99,-60.7 2845.13,-242.16 2849.09,-630.85 2847.11,-719.46"/>
</g>
<!-- emlak -->
<g id="node34" class="node">
<title>emlak</title>
<polygon fill="#f8c471" stroke="black" stroke-width="1.1" points="1413.49,-623.7 1282.49,-623.7 1282.49,-587.7 1413.49,-587.7 1413.49,-623.7"/>
<text text-anchor="middle" x="1347.99" y="-601.6" font-family="DejaVu Sans" font-size="17.00">Emlak Katılım</text>
</g>
<!-- emlak&#45;&#45;ktlev -->
<g id="edge37" class="edge">
<title>emlak&#45;&#45;ktlev</title>
<path fill="none" stroke="#444444" d="M1413.75,-601.27C1497.7,-594.78 1648.36,-580.54 1774.99,-554.7 1806.42,-548.28 1840.81,-538.49 1868.82,-529.76"/>
<text text-anchor="middle" x="1649.49" y="-593.3" font-family="DejaVu Sans" font-size="13.00" fill="#222222">satın alma görüşmesi (17.09)</text>
</g>
</g>
</svg>
